<?xml version="1.0" standalone="no"?>
<!DOCTYPE svg PUBLIC "-//W3C//DTD SVG 20010904//EN"
 "http://www.w3.org/TR/2001/REC-SVG-20010904/DTD/svg10.dtd">
<svg version="1.0" xmlns="http://www.w3.org/2000/svg"
 width="256.000000pt" height="256.000000pt" viewBox="0 0 256.000000 256.000000"
 preserveAspectRatio="xMidYMid meet">
<metadata>
Created by potrace 1.11, written by Peter Selinger 2001-2013
</metadata>
<g transform="translate(0.000000,256.000000) scale(0.100000,-0.100000)"
fill="#000000" stroke="none">
<path d="M1309 2559 c-1 -2 -2 -24 -4 -49 -9 -138 -26 -211 -71 -305 -48 -99
-70 -122 -124 -130 -70 -9 -189 -44 -255 -75 -389 -176 -578 -597 -457 -1015
38 -129 110 -274 131 -261 4 3 31 -19 59 -48 l52 -53 2 -311 3 -311 95 92
c269 260 325 308 345 303 11 -3 30 -6 42 -6 15 0 67 -44 160 -135 75 -74 144
-135 153 -135 9 0 21 5 28 12 27 27 11 55 -83 148 -52 52 -94 95 -92 96 1 1
25 5 52 8 28 4 59 9 70 12 15 3 53 -28 162 -136 89 -88 149 -140 162 -140 20
0 41 26 41 50 0 7 -54 66 -120 132 -66 65 -120 121 -120 124 0 2 26 16 57 30
186 82 335 229 424 418 59 127 78 228 74 401 -3 161 -17 224 -74 332 -21 40
-36 75 -33 78 3 3 16 5 28 5 32 0 153 45 172 64 13 13 12 20 -9 62 -30 59 -60
82 -130 97 -46 11 -54 16 -57 37 -5 42 -53 182 -84 245 -88 179 -259 310 -458
352 -30 6 -140 15 -141 12z"/>
</g>
</svg>
